# xmcd
#
# Track frame offsets:
# 150
# 17201
# 56555
# 71926
# 101029
# 113107
# 119947
# 131892
# 141339
# 149792
# 167028
#
# Disc length: 2647 seconds
#
# Revision: 3
# Processed by: cddbd v1.5.2PL0 Copyright (c) Steve Scherf et al.
# Submitted via: TinyPlayer 2.7
#
DISCID=bc0a550b
DTITLE=Московский Армянский Камерный Хор - Русская духовная музыка
DYEAR=1998
DGENRE=Chorus
TTITLE0=Д.Бортнянский -- Да воскреснет Бог
TTITLE1=М.Березовский -- Не отвержи мене во время старости
TTITLE2=А.Ведель -- Отче наш
TTITLE3=А.Ведель -- На реках вавилонских
TTITLE4=А.Львов -- Виждь твоя пребеззаконная дела
TTITLE5=А.Львов -- Достойно есть
TTITLE6=А.Львов -- Вечери Твоея тайныя
TTITLE7=С.Рахманинов -- Приидите, поклонимся
TTITLE8=С.Рахманинов -- Богородице, Дево, радуйся
TTITLE9=П.Чайковский -- Блаженни яже избрал
TTITLE10=Д.Бортнянский -- Тебе, Бога, хвалим
EXTD=YEAR: 1998
EXTT0=
EXTT1=
EXTT2=
EXTT3=
EXTT4=
EXTT5=
EXTT6=
EXTT7=
EXTT8=
EXTT9=
EXTT10=
PLAYORDER=
